<svg width="131" height="86" viewBox="0 0 131 86" fill="none" xmlns="http://www.w3.org/2000/svg">
<rect width="130.446" height="86" rx="38" fill="#2F2D2D"/>
<path d="M73.152 34.8V30.672H80.864V54H76.256V34.8H73.152ZM86.6978 48.944C88.7458 47.2373 90.3778 45.8187 91.5938 44.688C92.8098 43.536 93.8231 42.3413 94.6338 41.104C95.4444 39.8667 95.8498 38.6507 95.8498 37.456C95.8498 36.368 95.5938 35.5147 95.0818 34.896C94.5698 34.2773 93.7804 33.968 92.7138 33.968C91.6471 33.968 90.8258 34.3307 90.2498 35.056C89.6738 35.76 89.3751 36.7307 89.3538 37.968H85.0018C85.0871 35.408 85.8444 33.4667 87.2738 32.144C88.7244 30.8213 90.5591 30.16 92.7778 30.16C95.2098 30.16 97.0764 30.8107 98.3778 32.112C99.6791 33.392 100.33 35.088 100.33 37.2C100.33 38.864 99.8818 40.4533 98.9858 41.968C98.0898 43.4827 97.0658 44.8053 95.9138 45.936C94.7618 47.0453 93.2578 48.3893 91.4018 49.968H100.842V53.68H85.0338V50.352L86.6978 48.944Z" fill="#EBEBEB"/>
<ellipse cx="40.1485" cy="40.6664" rx="17.0792" ry="12.5674" fill="#1749FF"/>
<path d="M20.8323 55.9476L28.4366 45.1183L32.4506 49.7598L20.8323 55.9476Z" fill="#1749FF"/>
</svg>
