<svg width="103" height="97" viewBox="0 0 103 97" fill="none" xmlns="http://www.w3.org/2000/svg">
<rect width="103" height="97" rx="44" fill="#1749FF"/>
<path d="M66.029 45.5383C68.6901 47.079 68.6901 50.9211 66.029 52.4617L47.8254 63.0006C44.8984 64.6952 41.4413 62.2447 42.0189 59.0102C42.1976 58.0094 42.3807 57.0055 42.5657 56.0185C42.8031 56.1797 43.1481 56.3501 43.5926 56.393C44.964 56.5256 45.6223 55.4442 45.7722 55.1587C45.977 54.7686 46.0798 54.3416 46.1423 54.0138C46.2117 53.6503 46.2632 53.2294 46.3024 52.7626C46.3809 51.8272 46.4201 50.5822 46.4201 49C46.4201 47.4178 46.3809 46.1728 46.3024 45.2374C46.2632 44.7706 46.2117 44.3497 46.1423 43.9862C46.0798 43.6584 45.977 43.2314 45.7722 42.8414C45.6223 42.5558 44.964 41.4745 43.5926 41.607C43.1481 41.6499 42.8031 41.8203 42.5657 41.9815C42.3807 40.9945 42.1976 39.9906 42.0189 38.9898C41.4413 35.7553 44.8984 33.3048 47.8253 34.9994L66.029 45.5383Z" stroke="white" stroke-width="4"/>
</svg>
